<svg fill="none" height="111" viewBox="0 0 111 111" width="111" xmlns="http://www.w3.org/2000/svg"><path d="m55.1204 69.0592h-9.1666v-9.1666h9.1666zm27.5001 0h-18.3334v-9.1666h18.3334zm-45.8334-18.3333h-9.1667v-9.1667h9.1667zm45.8334 0h-36.6667v-9.1667h36.6667zm9.1666 41.25h-73.3333c-2.4312 0-4.7628-.9658-6.4818-2.6849-1.7191-1.7191-2.68489-4.0506-2.68489-6.4818v-55c0-2.4311.96579-4.7627 2.68489-6.4818 1.719-1.7191 4.0506-2.6848 6.4818-2.6848h73.3333c2.4312 0 4.7628.9657 6.4818 2.6848 1.7191 1.7191 2.6851 4.0507 2.6851 6.4818v55c0 2.4312-.966 4.7627-2.6851 6.4818-1.719 1.7191-4.0506 2.6849-6.4818 2.6849zm-73.3333-64.1667v55h73.3333v-55z" fill="#bec430"/></svg>