<svg fill="none" height="111" viewBox="0 0 111 111" width="111" xmlns="http://www.w3.org/2000/svg"><g fill="#bec430"><path clip-rule="evenodd" d="m107.106 54.735c0 29.04-23.3775 52.684-52.3307 52.684-28.9531 0-52.33682-23.6382-52.33682-52.684s23.37212-52.68422 52.33102-52.68422c28.959 0 52.3315 23.64422 52.3315 52.68422zm-52.3307 45.1579c24.7442 0 44.8047-20.2169 44.8047-45.1579 0-24.9411-20.0605-45.1579-44.8105-45.1579s-44.80471 20.2168-44.80471 45.1579c0 24.941 20.06051 45.1579 44.80471 45.1579z" fill-rule="evenodd"/><path d="m65.984 55.0553c-.2026.2258-.2026.5732 0 .799l13.8774 15.2726c.3647.3995 1.0305.1447 1.0305-.3995v-30.5568c0-.5442-.6658-.799-1.0305-.3995l-13.8774 15.2784z"/><path d="m62.7132 80.6847.5037.55c.2837.3068.6832.4863 1.1.4863h14.9542c1.2911 0 1.9684-1.54 1.0942-2.4895l-.0637-.0695-20.6336-22.7179c-.5153-.5673-.5153-1.43 0-1.9973l20.6336-22.7179.0637-.0695c.8742-.9495.1969-2.4895-1.0942-2.4895h-14.9542c-.3995 0-.7816.1621-1.0595.4458-.0173.0174-.0289.029-.0405.0405l-10.23 11.2606-7.8679 8.661v-18.92c0-.8221-.6658-1.4821-1.4821-1.4821h-13.061c-.8222 0-1.4821.6658-1.4821 1.4821v49.5753c0 .8163.6657 1.4821 1.4821 1.4821h13.061c.8221 0 1.4821-.6658 1.4821-1.4821v-18.9258l7.8679 8.661 9.7263 10.7106z"/></g></svg>