<svg fill="none" height="111" viewBox="0 0 111 111" width="111" xmlns="http://www.w3.org/2000/svg" xmlns:xlink="http://www.w3.org/1999/xlink"><clipPath id="a"><path d="m.123047.314453h110v110h-110z"/></clipPath><g clip-path="url(#a)"><path d="m13.8711.306641v13.749959h-13.750006v9.1667h13.750006v13.75h9.1667v-13.75h13.75v-9.1667h-13.75v-13.749959zm32.0833 13.749959v9.1667h41.25v9.1667h-27.5c-5.0416 0-9.1666 4.125-9.1666 9.1666v27.5c0 5.0417 4.125 9.1667 9.1666 9.1667h27.5v9.1667h-64.1666v-41.25h-9.1667v41.25c0 5.0416 4.0792 9.1666 9.1667 9.1666h64.1666c5.0417 0 9.1667-4.125 9.1667-9.1666v-10.45c2.7041-1.6042 4.5829-4.4917 4.5829-7.8834v-27.5c0-3.3916-1.8788-6.2791-4.5829-7.8833v-10.45c0-5.0417-4.125-9.1667-9.1667-9.1667zm13.75 27.5h32.0833v27.5h-32.0833zm13.75 6.875c-1.8233 0-3.572.7244-4.8613 2.0137-1.2894 1.2893-2.0137 3.038-2.0137 4.8613 0 1.8234.7243 3.5721 2.0137 4.8614 1.2893 1.2893 3.038 2.0136 4.8613 2.0136 1.8234 0 3.5721-.7243 4.8614-2.0136s2.0136-3.038 2.0136-4.8614c0-1.8233-.7243-3.572-2.0136-4.8613s-3.038-2.0137-4.8614-2.0137z" fill="#bec430"/></g></svg>