<svg height="120.6" viewBox="74.714 77.687 391.711 120.6" width="391.711" xmlns="http://www.w3.org/2000/svg">
    <g>
        <g fill="#fff">
            <path d="m146.714 101.687c0 14.6-11.4 21.9-28.5 21.9h-25.3v18.8h-18.2v-62.6h43.5c17.1 0 28.5 7.5 28.5 21.9zm-18.5.4c0-6.4-4.7-8.4-11.5-8.4h-23.7v16.7h23.7c6.8 0 11.5-2.1 11.5-8.3z"/>
            <path d="m216.214 142.387-16.6-19.8h-18.4v19.8h-18.2v-62.6h44c16 0 28.5 7.1 28.5 21.4s-6.6 17.1-16.5 20l18.4 21.3h-21.2zm-10.6-33c6.5 0 11.3-1.8 11.3-7.9s-4.7-7.9-11.3-7.9h-24.5v15.8z"/>
            <path d="m253.914 142.387v-62.6h18.3v62.7h-18.3z"/>
            <path d="m362.714 122.787c0 12.9-11.9 21.7-34.7 21.7s-29.6-4.4-39.5-12.3l9.6-11.3c7.4 6.3 17.7 9.8 30.3 9.8s16.1-2 16.1-6.1-5-5.4-17.9-6.4c-18.6-1.6-35.6-5.7-35.6-19.7s14.6-20.8 34.4-20.8 25.8 3.2 34.4 9.3l-9.2 11.4c-7-4.9-15.4-6.9-25.2-7-7.3 0-16.2 1.2-16.2 5.6s7.3 4.7 18.4 5.6c20.5 1.7 35 5.7 35 20.1z"/>
            <path d="m466.414 79.787v62.7h-18.2v-40.1l-25 30.6h-.9l-25-30.6v40h-17.6v-62.6h20l23.6 30.1 23.7-30.1z"/>
        </g>
        <path d="m194.493 179.587-119.579-16v7.2l119.579 27.5 271.932-27.5v-7.2z" fill="#43a2d9"/>
    </g>
</svg>