<svg fill="none" height="62" viewBox="0 0 62 62" width="62" xmlns="http://www.w3.org/2000/svg"><g stroke="#040000" stroke-linecap="round" stroke-linejoin="round" stroke-width="3"><path d="m11.5482 29.5116-4.49504-4.495-4.46918 4.495"/><path d="m50.4531 32.5078 4.495 4.495 4.495-4.495"/><path d="m54.9214 37.0029v-5.9933c0-13.2267-10.7208-23.92171-23.9216-23.92171-7.5434 0-14.2859 3.51341-18.6775 8.96421"/><path d="m7.07812 25.0166v5.9934c0 13.2266 10.72088 23.9216 23.92168 23.9216 7.5433 0 14.2858-3.5134 18.6775-8.9642"/><path d="m25.4062 37.0287c0 2.5059 1.9337 4.5209 4.3056 4.5209h4.8469c2.0626 0 3.7384-1.7567 3.7384-3.9525 0-2.3508-1.0312-3.2033-2.5524-3.7458l-7.7603-2.7125c-1.5211-.5425-2.5523-1.3692-2.5523-3.7459 0-2.17 1.6757-3.9525 3.7383-3.9525h4.8469c2.372 0 4.3056 2.015 4.3056 4.5209"/><path d="m31.8516 20.8828v23.25"/></g></svg>