<svg fill="none" height="413" viewBox="0 0 588 413" width="588" xmlns="http://www.w3.org/2000/svg" xmlns:xlink="http://www.w3.org/1999/xlink"><clipPath id="a"><path d="m0 .25h588v412h-588z"/></clipPath><clipPath id="b"><path d="m314 412.25h-314v-277c0-22.091 17.9086-40 40-40h234c22.091 0 40 17.909 40 40z"/></clipPath><clipPath id="c"><path d="m111.5 3.25h91v92h-91z"/></clipPath><mask id="d" fill="#fff"><path d="m611 179.357v200h-220c-11.046 0-20-8.954-20-20v-160c0-11.045 8.954-20 20-20z" fill="#fff"/></mask><g clip-path="url(#a)"><path d="m313 411.25h-312v-371c0-21.5391 17.4609-39 39-39h234c21.539 0 39 17.4609 39 39z" fill="#e8e8e7"/><path d="m313 411.25h-312v-371c0-21.5391 17.4609-39 39-39h234c21.539 0 39 17.4609 39 39z" stroke="#6a6a68" stroke-width="2"/><path d="m297 411.25h-280v-227c0-21.539 17.4609-39 39-39h202c21.539 0 39 17.461 39 39z" fill="#fff"/><path d="m297 411.25h-280v-227c0-21.539 17.4609-39 39-39h202c21.539 0 39 17.461 39 39z" stroke="#6a6a68" stroke-width="2"/><g clip-path="url(#b)"><path d="m308.457 175.187c0-2.209 1.791-3.999 4-3.999s4 1.79 4 3.999v208.34c0 2.209-1.791 4-4 4s-4-1.791-4-4z" fill="#040000"/></g><path d="m313 411.25h-312v-276c0-21.539 17.4609-39 39-39h234c21.539 0 39 17.461 39 39z" stroke="#6a6a68" stroke-width="2"/><g clip-path="url(#c)"><path d="m145.159 76.465c-10.841-.9583-20.417-5.0238-26.645-11.3203-3.555-3.5863-5.71-7.4795-6.68-12.069-.444-2.0889-.444-5.5479.008-7.6592 1.355-6.3789 5.428-11.9567 11.849-16.2168 14.641-9.7031 37.072-9.6582 51.58.1123 1.925 1.2953 3.169 2.3285 4.917 4.0654 2.199 2.1937 5.376 7.5843 5.376 7.5843s.363.2696.667.3295c1.029.2171 2.399 1.0257 3.503 2.0664.859.8086 1.518 1.692 3.155 4.1927 1.651 2.5231 9.116 14.1728 9.568 14.9365.177.2995-.171.7712-.563.7712-.282 0-.474-.1872-.889-.8461-.289-.4641-2.192-3.4515-4.229-6.6409-7.205-11.2754-7.59-11.7995-9.597-12.8177l-1.052-.5316h-3.095c-3.096 0-3.096 0-3.17.3294-.407 1.8044-.489 2.2461-.4 2.3285.059.0524 1.815 1.0631 3.903 2.2461l3.799 2.1487-.237.5017c-.133.277-.281.5016-.333.5016s-3.251-1.7894-7.11-3.9831c-3.858-2.1862-7.242-4.0429-7.516-4.1178-1.096-.307-2.785.9209-2.785 2.029 0 1.123.326 1.4449 7.11 7.0602 4.228 3.5039 6.65 5.6077 7.02 6.1019.674.9059 1.355 2.2386 1.977 3.8782 1.104 2.89 2.896 4.4997 5.836 5.2484l.97.2471-.081.5315c-.045.292-.104.5616-.141.599-.126.1423-2.074-.4867-3.199-1.0332-1.763-.8535-2.977-2.0739-4.17-4.2002-.007-.015-.703.2246-1.533.5316-1.481.5465-1.555.5915-2.954 1.9765-5.977 5.8998-14.552 9.6657-24.898 10.946-1.696.2396-8.168.3369-9.961.1722zm10.302-1.8118c4.747-.6364 8.435-1.5873 12.286-3.182 4.043-1.6771 7.864-4.0804 10.53-6.641l1.052-1.0107-2.651-1.2803c-2.829-1.3701-3.111-1.5947-3.474-2.8151-.229-.7711.03-1.5947.756-2.3808l.563-.6215-1.23-.9433c-.97-.7487-1.273-1.0707-1.466-1.5648-.304-.8011-.193-1.6696.296-2.3659l.371-.5316-3.881-.6888c-2.133-.3818-4.125-.7636-4.421-.8535-.585-.1722-1.17-.846-1.326-1.4974-.081-.3519 1.822-9.7405 2.244-11.0807.193-.599 1-1.3252 1.615-1.4375.644-.1198 12.078 1.9092 12.648 2.2461.904.5316 1.185 1.3851.904 2.7028l-.119.5465h.63c.348 0 1.17-.0449 1.829-.0973l1.2-.0973-.593-1.1156c-1.785-3.3616-5.036-6.7607-9.042-9.456-1.874-1.2578-5.865-3.2494-8.272-4.1179-3.421-1.2353-7.561-2.1637-11.538-2.583-2.185-.2321-7.894-.2246-10.012.0075-5.073.554-9.679 1.7145-13.708 3.4515-9.331 4.0205-15.604 10.6839-17.211 18.2757-.422 1.9841-.451 5.458-.066 7.2624.851 3.9906 2.703 7.442 5.717 10.654 6.146 6.5436 15.537 10.5716 26.793 11.4775 1.511.1198 8.043-.0599 9.576-.262zm-2.052-7.1426c-.577-.1722-1.17-.8685-1.296-1.5349-.081-.4342.015-.7337.63-1.9391 2.488-4.8665 3.569-9.3437 3.569-14.7718 0-5.2484-.955-9.3363-3.332-14.2327-.511-1.0482-.926-2.029-.926-2.1713 0-.5241.43-1.2802.896-1.5722.637-.4043 1.711-.3295 2.229.1572.2.1872.711 1.0407 1.141 1.8942 1.703 3.3766 2.866 7.0827 3.443 10.9385.356 2.3883.43 6.9105.141 9.0967-.526 4.028-1.577 7.6292-3.266 11.1481-1.022 2.1263-1.659 3.0023-2.192 3.0023-.104 0-.281.0299-.385.0598-.104.03-.4 0-.652-.0748zm-6.924-3.6612c-.889-.262-1.533-1.3701-1.274-2.1936.06-.2022.482-1.1231.933-2.0515 1.904-3.9306 2.696-8.1383 2.311-12.2711-.318-3.3991-.918-5.5404-2.436-8.67-1.015-2.1038-1.067-2.4257-.474-3.2792.562-.8086 1.969-.9359 2.703-.2546.511.4717 2.103 3.8333 2.717 5.735 2.03 6.2891 1.719 13.0498-.881 19.2266-1.34 3.167-2.281 4.1478-3.599 3.7584zm-7.139-3.7135c-.548-.2471-1.022-.8385-1.155-1.43-.082-.3594.059-.7637.711-2.0964 2.399-4.9114 2.421-9.6357.081-14.4349-1.029-2.1038-1.051-2.5231-.185-3.3541.43-.4118.615-.4792 1.215-.4792 1.014 0 1.54.5166 2.443 2.3958 1.393 2.89 1.963 5.3982 1.956 8.6101-.008 3.3017-.541 5.5703-2.022 8.6175-.852 1.7444-1.274 2.2086-2.126 2.3209-.259.0225-.674-.0374-.918-.1497zm-6.665-3.459c-.437-.1797-.933-.7786-1.081-1.3027-.163-.584-.03-1.0482.622-2.1338.844-1.4001 1.037-2.1488 1.037-3.9756s-.193-2.583-1.037-3.9756c-.289-.4717-.57-1.0407-.637-1.2653-.274-.9209.489-2.0514 1.511-2.2461.866-.1647 1.459.2246 2.258 1.4825 2.304 3.6386 2.304 8.4902 0 12.0989-.814 1.2653-1.718 1.7145-2.673 1.3177zm49.64 5.6452c.77-.277 1.436-.5391 1.481-.584.044-.0449-.104-.539-.333-1.1081-.46-1.1604-.385-1.1305-2.03-.816-1.769.3444-2.799.0374-4.739-1.4076-.526-.3968-1.074-.7187-1.207-.7187-.141 0-.437.2021-.674.4567-.496.539-.57 1.3776-.17 1.8792.355.4342 5.221 2.7777 5.798 2.7926.259.0075 1.096-.2171 1.874-.4941zm-.77-3.766c.718-.1497.799-.1946.673-.4342-.14-.262-6.872-5.9072-7.457-6.2591-.481-.2845-.874-.2171-1.274.2171-1.17 1.2653-1.029 1.5348 2 3.8783 3.658 2.8375 4.051 3.0022 6.058 2.5979zm-9.035-8.5576c0-.0374-.763-.7037-1.696-1.4749-2.303-1.9167-2.799-2.6354-2.799-4.0579 0-1.183.785-2.3285 2.044-2.9874.622-.3294 1.74-.4267 2.369-.2171.445.1498 2.459 1.2504 5.243 2.8675l.585.3444.482-2.3209c.496-2.3734.503-3.0023.044-3.1446-.14-.0449-2.829-.539-5.969-1.1005-5.583-.9958-6.198-1.0557-6.457-.6289-.141.2246-2.266 10.1822-2.266 10.6015 0 .2097.103.4717.237.584.125.1123 1.94.5091 4.028.8835 4.029.7337 4.155.7562 4.155.6513z" fill="#040000"/></g><path d="m342.5 293.674 1.939-1.939-7.673-7.686h16.734v-2.75h-16.734l7.687-7.673-1.953-1.952-11 11z" fill="#262626"/><path d="m611 179.357v200h-220c-11.046 0-20-8.954-20-20v-160c0-11.045 8.954-20 20-20z" fill="#fbfbfa"/><path d="m611 179.357v200zm-220 202c-12.15 0-22-9.849-22-22v-160c0-12.15 9.85-22 22-22v4c-9.941 0-18 8.059-18 18v160c0 9.942 8.059 18 18 18zm-22-182c0-12.15 9.85-22 22-22h220v4h-220c-9.941 0-18 8.059-18 18zm242 182h-220c-12.15 0-22-9.849-22-22h4c0 9.942 8.059 18 18 18h220z" fill="#a8a8a7" mask="url(#d)"/><path d="m433.305 207.901.011 21.226c0 2.505-2.044 4.556-4.528 4.556l-29.212.024c-2.508 0-4.552-2.052-4.552-4.544l-.024-21.226c0-2.517 2.044-4.556 4.54-4.556l29.225-.024c2.495 0 4.54 2.028 4.54 4.544z" fill="#a8a8a7"/><path d="m409.772 229.652c-.166 0-.32-.083-.392-.238-.107-.215-.023-.489.19-.597.642-.333 1.51-.954 2.021-2.015.642-1.359.475-2.838.202-2.969-.071-.036-.333.107-.499.191-.416.214-.999.512-1.664.274-.654-.227-.975-.811-1.129-1.097-1.01-1.849-1.319-6.642-.262-9.027.357-.788.832-1.265 1.427-1.408.606-.143 1.105.108 1.497.322.321.167.487.239.594.179.416-.25.404-1.777-.178-2.981-.511-1.073-1.379-1.693-2.02-2.015-.214-.108-.309-.382-.191-.597.107-.214.381-.31.595-.19.76.393 1.806 1.132 2.412 2.432.606 1.276.892 3.482-.166 4.126-.535.322-1.046.06-1.45-.143-.309-.155-.606-.31-.891-.238-.393.095-.654.536-.82.894-.927 2.087-.654 6.619.225 8.24.155.275.333.573.642.68.297.107.582-.024.975-.227.392-.202.82-.417 1.283-.202.999.489.927 2.623.214 4.15-.618 1.299-1.652 2.039-2.412 2.432-.072.012-.143.024-.203.024z" fill="#f7f7f5"/><path d="m408.428 214.972h-7.975c-.249 0-.439-.202-.439-.441 0-.238.19-.441.428-.441h7.974c.25 0 .44.203.44.441.012.239-.178.441-.428.441z" fill="#f7f7f5"/><path d="m408.428 222.988h-7.975c-.249 0-.439-.203-.439-.441 0-.251.202-.442.439-.442h7.975c.25 0 .44.203.44.442.012.238-.19.441-.44.441z" fill="#f7f7f5"/><path d="m419.076 229.641c-.071 0-.142-.012-.202-.047-.76-.394-1.806-1.133-2.412-2.433-.725-1.527-.785-3.661.202-4.15.463-.227.903 0 1.283.191.404.202.69.334.975.226.333-.119.523-.465.642-.679.879-1.622 1.141-6.166.214-8.241-.167-.357-.428-.81-.82-.894-.238-.06-.393-.298-.333-.537.059-.238.297-.381.535-.333.594.143 1.069.608 1.426 1.395 1.069 2.385.76 7.191-.25 9.027-.154.286-.475.871-1.129 1.097-.665.239-1.248-.06-1.664-.274-.166-.084-.428-.215-.499-.191-.261.131-.44 1.61.214 2.969.511 1.074 1.379 1.694 2.02 2.016.214.107.309.381.191.596-.072.179-.226.262-.393.262z" fill="#f7f7f5"/><path d="m417.297 213.184c-.19 0-.356-.119-.416-.298-.951-2.862 1.272-5.068 1.985-5.426.214-.119.487-.024.594.191s.024.489-.19.596c-.321.167-2.365 1.92-1.557 4.353.083.238-.047.489-.285.56-.036.024-.083.024-.131.024z" fill="#f7f7f5"/><path d="m428.383 214.961h-7.975c-.249 0-.439-.203-.439-.442 0-.238.202-.441.439-.441h7.975c.25 0 .44.203.44.441 0 .239-.202.442-.44.442z" fill="#f7f7f5"/><path d="m428.383 222.963h-7.975c-.249 0-.439-.203-.439-.442 0-.25.202-.441.439-.441h7.975c.25 0 .44.203.44.441 0 .251-.19.442-.44.442z" fill="#f7f7f5"/><g fill="#4a4a49"><path d="m578.011 269.242v2.594l-3.682-.173 2.147 2.956-2.304 1.383-1.817-3.317-1.817 3.317-2.257-1.383 2.1-2.956-3.635.173v-2.594l3.635.205-2.1-3.003 2.257-1.383 1.817 3.317 1.817-3.317 2.304 1.383-2.131 3.003z"/><path d="m556.745 269.226v2.594l-3.682-.157 2.147 2.956-2.303 1.383-1.818-3.317-1.817 3.317-2.256-1.383 2.099-2.956-3.635.173v-2.594l3.635.205-2.099-3.003 2.256-1.383 1.817 3.317 1.818-3.317 2.303 1.367-2.131 3.003z"/><path d="m535.482 269.226v2.594l-3.667-.157 2.147 2.956-2.303 1.383-1.818-3.317-1.817 3.317-2.256-1.383 2.099-2.956-3.635.173v-2.594l3.635.205-2.099-3.003 2.256-1.383 1.817 3.317 1.818-3.317 2.303 1.383-2.131 3.003z"/><path d="m514.232 269.226v2.594l-3.667-.157 2.147 2.956-2.303 1.383-1.818-3.317-1.817 3.317-2.256-1.383 2.099-2.956-3.635.173v-2.594l3.635.205-2.099-3.003 2.256-1.383 1.817 3.317 1.818-3.317 2.303 1.383-2.131 3.003z"/><path d="m478.982 269.226v2.594l-3.667-.157 2.147 2.956-2.303 1.383-1.818-3.317-1.817 3.317-2.256-1.383 2.099-2.956-3.635.173v-2.594l3.635.205-2.099-3.003 2.256-1.383 1.817 3.317 1.818-3.317 2.303 1.383-2.131 3.003z"/><path d="m457.734 269.226v2.594l-3.667-.157 2.147 2.956-2.303 1.383-1.818-3.317-1.817 3.317-2.256-1.383 2.099-2.956-3.635.173v-2.594l3.635.205-2.099-3.003 2.256-1.383 1.817 3.317 1.818-3.317 2.303 1.383-2.131 3.003z"/><path d="m436.484 269.226v2.594l-3.667-.157 2.147 2.956-2.303 1.383-1.818-3.317-1.817 3.317-2.256-1.383 2.099-2.956-3.635.173v-2.594l3.635.205-2.099-3.003 2.256-1.383 1.817 3.317 1.818-3.317 2.303 1.383-2.131 3.003z"/><path d="m415.236 269.226v2.594l-3.667-.157 2.147 2.956-2.303 1.383-1.818-3.317-1.817 3.317-2.256-1.383 2.099-2.956-3.635.173v-2.594l3.635.205-2.099-3.003 2.256-1.383 1.817 3.317 1.818-3.317 2.303 1.383-2.131 3.003z"/></g><rect fill="#e8e8e7" height="16" rx="5" width="107" x="395" y="308.357"/><rect fill="#e8e8e7" height="95" rx="5" transform="matrix(0 1 -1 0 823.357 -156.643)" width="22" x="490" y="333.357"/></g></svg>