<svg fill="none" height="511" viewBox="0 0 314 511" width="314" xmlns="http://www.w3.org/2000/svg" xmlns:xlink="http://www.w3.org/1999/xlink"><clipPath id="a"><path d="m0 0h314v511h-314z"/></clipPath><clipPath id="b"><path d="m257 450.25c0 11.046-8.954 20-20 20h-160c-11.0457 0-20-8.954-20-20v-157h200z"/></clipPath><mask id="c" fill="#fff"><path d="m257 450.25c0 11.046-8.954 20-20 20h-160c-11.0457 0-20-8.954-20-20v-157h200z" fill="#fff"/></mask><g clip-path="url(#a)"><path d="m313 .75v263c0 27.062-21.938 49-49 49h-214c-27.062 0-49-21.938-49-49v-263z" fill="#e8e8e7"/><path d="m313 .75v263c0 27.062-21.938 49-49 49h-214c-27.062 0-49-21.938-49-49v-263z" stroke="#6a6a68" stroke-width="2"/><path d="m297 .75v246c0 16.016-12.984 29-29 29h-222c-16.0163 0-29-12.984-29-29v-246z" fill="#fff"/><path d="m297 .75v246c0 16.016-12.984 29-29 29h-222c-16.0163 0-29-12.984-29-29v-246z" stroke="#6a6a68" stroke-width="2"/><rect fill="#040000" height="2" rx="1" width="202" x="56" y="292.25"/><rect height="2" rx="1" stroke="#000" stroke-width="2" width="202" x="56" y="292.25"/><g clip-path="url(#b)"><path d="m257 450.25c0 11.046-8.954 20-20 20h-160c-11.0457 0-20-8.954-20-20v-157h200z" fill="#fbfbfa"/><rect fill="#a8a8a7" height="70" rx="5" transform="matrix(-1 -0 0 -1 466 878.5)" width="22" x="233" y="439.25"/><g fill="#4a4a49"><path d="m171.289 431.249h-2.594l.173-3.682-2.955 2.147-1.384-2.303 3.317-1.818-3.317-1.817 1.384-2.256 2.955 2.099-.173-3.635h2.594l-.204 3.635 3.002-2.099 1.384 2.256-3.317 1.817 3.317 1.818-1.384 2.303-3.002-2.131z"/><path d="m171.305 409.984h-2.594l.157-3.682-2.955 2.146-1.384-2.303 3.317-1.817-3.317-1.818 1.384-2.256 2.955 2.1-.173-3.635h2.594l-.204 3.635 3.002-2.1 1.384 2.256-3.317 1.818 3.317 1.817-1.368 2.303-3.003-2.131z"/><path d="m171.305 388.72h-2.594l.157-3.666-2.955 2.146-1.384-2.303 3.317-1.817-3.317-1.818 1.384-2.256 2.955 2.1-.173-3.635h2.594l-.204 3.635 3.002-2.1 1.384 2.256-3.317 1.818 3.317 1.817-1.384 2.303-3.002-2.131z"/><path d="m171.305 367.47h-2.594l.157-3.666-2.955 2.146-1.384-2.303 3.317-1.817-3.317-1.818 1.384-2.256 2.955 2.1-.173-3.635h2.594l-.204 3.635 3.002-2.1 1.384 2.256-3.317 1.818 3.317 1.817-1.384 2.303-3.002-2.131z"/><path d="m171.305 332.22h-2.594l.157-3.666-2.955 2.146-1.384-2.303 3.317-1.817-3.317-1.818 1.384-2.256 2.955 2.1-.173-3.635h2.594l-.204 3.635 3.002-2.1 1.384 2.256-3.317 1.818 3.317 1.817-1.384 2.303-3.002-2.131z"/><path d="m171.305 310.972h-2.594l.157-3.666-2.955 2.146-1.384-2.303 3.317-1.817-3.317-1.818 1.384-2.256 2.955 2.099-.173-3.634h2.594l-.204 3.634 3.002-2.099 1.384 2.256-3.317 1.818 3.317 1.817-1.384 2.303-3.002-2.131z"/></g><rect fill="#e8e8e7" height="16" rx="5" transform="matrix(0 1 -1 0 514.25 258.25)" width="54" x="128" y="386.25"/><rect fill="#e8e8e7" height="37" rx="5" transform="matrix(-1 -0 0 -1 206 880.5)" width="22" x="103" y="440.25"/></g><path d="m259 450.25c0 12.15-9.85 22-22 22h-160c-12.1503 0-22-9.85-22-22h4c0 9.941 8.0589 18 18 18h160c9.941 0 18-8.059 18-18zm-202-157h200zm202 0v157c0 12.15-9.85 22-22 22v-4c9.941 0 18-8.059 18-18v-157zm-182 179c-12.1503 0-22-9.85-22-22v-157h4v157c0 9.941 8.0589 18 18 18z" fill="#a8a8a7" mask="url(#c)"/><path d="m153.529 490.75 1.939 1.939 7.686-7.673v16.734h2.75v-16.734l7.673 7.687 1.952-1.953-11-11z" fill="#262626"/></g></svg>