<svg fill="none" height="885" viewBox="0 0 712 885" width="712" xmlns="http://www.w3.org/2000/svg"
    xmlns:xlink="http://www.w3.org/1999/xlink">
    <mask id="a" height="442" maskUnits="userSpaceOnUse" width="429" x="220" y="227">
        <path d="m648.099 227.867h-427.654v440.815h427.654z" fill="#fff" />
    </mask>
    <g fill="#fcffd6" opacity=".2">
        <path clip-rule="evenodd"
            d="m864.467 442.324c0 243.652-192.943 442-432 442-239.058 0-432.000203-198.348-432.000203-442s192.942203-441.999781 432.000203-441.999781c239.057 0 432 198.347781 432 441.999781zm-432 378.865c204.285 0 369.877-169.635 369.877-378.865 0-209.229-165.592-378.8646-369.877-378.8646-204.286 0-369.877 169.6356-369.877 378.8646 0 209.23 165.591 378.865 369.877 378.865z"
            fill-rule="evenodd" />
        <g mask="url(#a)">
            <path
                d="m525.019 445.017c-1.696 1.886-1.696 4.795 0 6.68l114.547 128.156c3.021 3.34 8.534 1.185 8.534-3.34v-256.312c0-4.579-5.513-6.733-8.534-3.34z" />
            <path
                d="m498.039 660.01 4.134 4.633c2.333 2.585 5.619 4.094 9.117 4.094h123.452c10.654 0 16.273-12.875 9.011-20.848l-.53-.592-170.362-190.591c-4.241-4.74-4.241-12.013 0-16.753l170.362-190.591.53-.593c7.209-7.972 1.643-20.847-9.011-20.847h-123.452c-3.286 0-6.466 1.347-8.746 3.717-.106.108-.265.215-.318.323l-84.438 94.487-64.933 72.67v-158.753c0-6.896-5.513-12.444-12.244-12.444h-107.815c-6.785 0-12.244 5.602-12.244 12.444v415.927c0 6.895 5.512 12.444 12.244 12.444h107.815c6.784 0 12.244-5.603 12.244-12.444v-158.754l64.933 72.67 80.304 89.855z" />
        </g>
    </g>
</svg>