<svg fill="none" height="133" viewBox="0 0 535 133" width="535" xmlns="http://www.w3.org/2000/svg" xmlns:xlink="http://www.w3.org/1999/xlink"><mask id="a" height="53" maskUnits="userSpaceOnUse" width="52" x="57" y="39"><path d="m108.193 39.623h-50.6188v51.6822h50.6188z" fill="#fff"/></mask><path d="m217.775 89.879c-3.037 0-5.734-.7768-8.087-2.3242s-4.216-3.6695-5.571-6.36c-1.318-2.7347-1.971-5.8358-1.971-9.3032 0-3.6505.791-6.9094 2.378-9.7831 1.632-2.8737 3.896-5.1095 6.795-6.7074 2.899-1.6421 6.324-2.4631 10.264-2.4631s7.159.7957 9.926 2.3936c2.811 1.5979 4.981 3.7832 6.525 6.5685 1.543 2.7852 2.309 5.9747 2.309 9.581v17.5137h-11.35v-5.4758h-.27c-.633 1.2316-1.449 2.3242-2.447 3.2842-.997.96-2.196 1.7116-3.601 2.2548-1.361.5494-2.993.821-4.894.821zm3.532-10.3326c1.45 0 2.698-.3411 3.74-1.0232 1.041-.7263 1.857-1.7116 2.446-2.9431.59-1.2316.885-2.6211.885-4.1748s-.295-2.8989-.885-4.0358c-.589-1.1873-1.405-2.1221-2.446-2.8042-1.042-.7326-2.29-1.0926-3.74-1.0926-1.449 0-2.654.3663-3.739 1.0926-1.041.6821-1.857 1.6169-2.447 2.8042-.59 1.1432-.885 2.4885-.885 4.0358 0 1.5474.295 2.9432.885 4.1748.59 1.2315 1.406 2.2105 2.447 2.9431 1.085.6821 2.334 1.0232 3.739 1.0232zm31.025 9.4421c-2.265 0-4.166-.4358-5.709-1.3011-1.543-.8652-2.698-2.0084-3.47-3.4231-.721-1.4148-1.085-2.9432-1.085-4.5853s.408-3.1453 1.223-4.3768c.816-1.2758 1.97-2.3937 3.464-3.3537l10.804-6.9095c.269-.1831.451-.3663.545-.5495.088-.1831.138-.341.138-.48 0-.2273-.087-.4105-.269-.5494-.182-.139-.452-.2085-.816-.2085h-13.797v-9.5115h18.553c1.995 0 3.739.4358 5.232 1.301 1.493.8653 2.654 2.0274 3.463 3.4863.816 1.4148 1.224 2.9621 1.224 4.6548 0 1.5031-.364 2.9431-1.085 4.3073-.722 1.3706-1.77 2.4885-3.125 3.3537l-10.804 6.9095c-.226.1389-.408.2968-.546.48-.087.1389-.138.2716-.138.4105 0 .1832.094.3663.27.5495.226.1389.521.2021.885.2021h13.865v9.5811h-18.828zm36.013.8905c-3.036 0-5.734-.7768-8.087-2.3242-2.359-1.5474-4.216-3.6695-5.571-6.36-1.312-2.7347-1.97-5.8358-1.97-9.3032 0-3.6505.79-6.9094 2.377-9.7831 1.632-2.8737 3.897-5.1095 6.795-6.7074 2.899-1.6421 6.318-2.4631 10.264-2.4631 3.947 0 7.159.7957 9.926 2.3936 2.811 1.5979 4.982 3.7832 6.525 6.5685 1.537 2.7852 2.309 5.9747 2.309 9.581v17.5137h-11.35v-5.4758h-.27c-.633 1.2316-1.449 2.3242-2.447 3.2842-.997.96-2.195 1.7116-3.601 2.2548-1.361.5494-2.993.821-4.894.821zm3.532-10.3326c1.45 0 2.698-.3411 3.74-1.0232 1.041-.7263 1.857-1.7116 2.447-2.9431.589-1.2316.884-2.6211.884-4.1748s-.295-2.8989-.884-4.0358c-.59-1.1873-1.406-2.1221-2.447-2.8042-1.042-.7326-2.29-1.0926-3.74-1.0926-1.449 0-2.647.3663-3.739 1.0926-1.041.6821-1.857 1.6169-2.447 2.8042-.59 1.1432-.884 2.4885-.884 4.0358 0 1.5474.294 2.9432.884 4.1748.59 1.2315 1.406 2.2105 2.447 2.9431 1.085.6821 2.334 1.0232 3.739 1.0232zm22.123 9.4421v-20.2484c0-3.0127.721-5.7032 2.177-8.0716 1.493-2.419 3.582-4.3074 6.255-5.6779 2.716-1.3705 5.891-2.0526 9.518-2.0526 3.626 0 6.75.6821 9.379 2.0526s4.643 3.2589 6.048 5.6779c1.406 2.3747 2.108 5.0652 2.108 8.0716v20.2484h-11.826v-19.7053c0-1.0484-.251-2.0084-.747-2.8737-.502-.9094-1.198-1.6421-2.108-2.1915-.859-.5495-1.882-.8211-3.062-.8211-1.179 0-2.177.2716-3.124.8211-.903.5494-1.606 1.2757-2.108 2.1915-.502.8653-.747 1.8253-.747 2.8737v19.7053h-11.757zm43.842 13.8885v-10.1243h17.059c.772 0 1.381-.2274 1.832-.6821.452-.4105.678-.96.678-1.6421v-6.979h-.27c-.728.9095-1.562 1.7306-2.516 2.4632-.953.6821-2.058 1.2316-3.331 1.6421-1.224.3663-2.673.5495-4.348.5495-3.081 0-5.797-.7263-8.156-2.1916-2.359-1.5032-4.216-3.5368-5.572-6.0884-1.311-2.5516-1.97-5.4253-1.97-8.6211s.728-6.3158 2.177-9.101c1.45-2.7853 3.583-4.9958 6.387-6.6379 2.811-1.6863 6.23-2.5327 10.265-2.5327 4.034 0 7.202.7958 10.057 2.3937s5.076 3.8337 6.663 6.7074c1.631 2.8295 2.447 6.1579 2.447 9.9916v20.2484c0 3.2842-.954 5.861-2.855 7.7303-1.901 1.914-4.574 2.874-8.018 2.874h-20.522zm12.435-24.4233c1.362 0 2.56-.3157 3.602-.96 1.041-.6821 1.857-1.5726 2.447-2.6715.589-1.0927.884-2.3053.884-3.6253 0-1.4589-.295-2.76-.884-3.8968-.59-1.1432-1.406-2.0527-2.447-2.7348-1.042-.6821-2.246-1.0231-3.602-1.0231-1.355 0-2.584.341-3.67 1.0231-1.041.6379-1.857 1.5284-2.447 2.6653-.589 1.1431-.884 2.4189-.884 3.8337 0 1.4147.295 2.621.884 3.7642.59 1.0926 1.406 1.9831 2.447 2.6716 1.086.6379 2.309.96 3.67.96z" fill="#bec430"/><path d="m188.846 87.6243.458.5052c.257.2842.621.4484 1.003.4484h13.602c1.174 0 1.789-1.4084.992-2.28l-.057-.0631-18.772-20.8105c-.464-.5179-.464-1.3074 0-1.8253l18.772-20.8105.057-.0632c.797-.8716.182-2.28-.992-2.28h-13.608c-.364 0-.709.1453-.96.4105-.012.0127-.025.0253-.037.0379l-9.305 10.3137-7.158 7.9326v-17.3305c0-.7516-.603-1.3579-1.349-1.3579h-11.883c-.747 0-1.349.6063-1.349 1.3579v45.4042c0 .7516.602 1.3579 1.349 1.3579h11.883c.746 0 1.349-.6063 1.349-1.3579v-17.3305l7.158 7.9326z" fill="#bec430"/><g fill="#040000"><path clip-rule="evenodd" d="m133.804 64.7664c0 28.5663-22.838 51.8206-51.1337 51.8206-28.2958 0-51.1332-23.2543-51.1332-51.8206s22.8374-51.8211 51.1332-51.8211c28.2957 0 51.1337 23.2548 51.1337 51.8211zm-51.1337 44.4186c24.1797 0 43.7797-19.8881 43.7797-44.4186 0-24.5306-19.6-44.419-43.7797-44.419-24.18 0-43.78 19.8884-43.78 44.419 0 24.5305 19.6 44.4186 43.78 44.4186z" fill-rule="evenodd"/><g mask="url(#a)"><path d="m93.6252 65.0812c-.2008.2211-.2008.5622 0 .7832l13.5578 15.0253c.358.3915 1.01.1389 1.01-.3916v-30.0505c0-.5369-.652-.7895-1.01-.3916z"/><path d="m90.4314 90.2879.4893.5431c.2761.3032.6651.48 1.0792.48h14.6121c1.261 0 1.926-1.5095 1.067-2.4442l-.063-.0695-20.1648-22.3452c-.5019-.5558-.5019-1.4085 0-1.9642l20.1648-22.3453.063-.0695c.853-.9347.194-2.4442-1.067-2.4442h-14.6121c-.389 0-.7655.1579-1.0352.4358-.0126.0126-.0314.0253-.0377.0379l-9.9945 11.0779-7.6856 8.52v-18.6126c0-.8085-.6525-1.459-1.4493-1.459h-12.7614c-.8031 0-1.4493.6568-1.4493 1.459v48.7642c0 .8084.6525 1.4589 1.4493 1.4589h12.7614c.803 0 1.4493-.6568 1.4493-1.4589v-18.6127l7.6856 8.52 9.5051 10.5348z"/></g><path d="m395.285 90.4665v-48.6442h16.695c11.758 0 18.452 5.2358 18.452 15.5115v.2716c0 10.2758-7.096 15.1705-18.113 15.1705h-6.148v17.6906h-10.88zm10.879-25.3769h5.54c5.339 0 8.175-2.5831 8.175-7.4147v-.2716c0-5.1726-2.974-7.2126-8.175-7.2126h-5.54zm36.716 26.1221c-6.419 0-11.827-3.1326-11.827-10.6105 0-8.2989 7.567-11.4316 18.383-11.4316h3.99v-1.4273c0-4.219-1.286-6.5306-5.747-6.5306-3.852 0-5.609 1.9706-6.016 5.0337h-9.261c.609-8.4379 7.234-12.1768 15.88-12.1768 8.645 0 14.8 3.5368 14.8 13.2v23.1979h-9.53v-4.2884c-2.027 2.8547-5.139 5.0336-10.678 5.0336zm2.905-6.8715c4.322 0 7.635-2.3811 7.635-6.3285v-2.9936h-3.783c-5.678 0-8.991 1.2252-8.991 5.0336 0 2.5832 1.556 4.2885 5.139 4.2885zm26.815 18.2338 6.217-15.7138-14.053-31.9769h10.54l8.583 21.36 7.905-21.36h9.392l-19.123 47.6907z"/></g></svg>