<svg fill="none" height="88" viewBox="0 0 362 88" width="362" xmlns="http://www.w3.org/2000/svg" xmlns:xlink="http://www.w3.org/1999/xlink"><mask id="a" height="35" maskUnits="userSpaceOnUse" width="36" x="38" y="26"><path d="m73.2609 26.207h-34.3146v34.4548h34.3146z" fill="#fff"/></mask><g fill="#040000"><path d="m147.547 59.7097c-2.059 0-3.888-.5179-5.483-1.5495-1.594-1.0315-2.858-2.4463-3.776-4.24-.894-1.8231-1.336-3.8905-1.336-6.2021 0-2.4337.536-4.6063 1.612-6.5221 1.106-1.9158 2.641-3.4063 4.606-4.4716 1.965-1.0947 4.287-1.6421 6.958-1.6421s4.853.5306 6.729 1.5958c1.905 1.0653 3.377 2.5221 4.423 4.379 1.047 1.8568 1.565 3.9831 1.565 6.3873v11.6758h-7.694v-3.6505h-.182c-.43.8211-.983 1.5495-1.659 2.1895s-1.489 1.141-2.441 1.5031c-.923.3664-2.029.5474-3.318.5474zm2.394-6.8884c.983 0 1.829-.2274 2.535-.6821.706-.4842 1.259-1.1411 1.659-1.9621.4-.8211.6-1.7474.6-2.7832s-.2-1.9326-.6-2.6905c-.4-.7916-.953-1.4147-1.659-1.8695-.706-.4884-1.552-.7284-2.535-.7284-.982 0-1.799.2442-2.535.7284-.706.4548-1.259 1.0779-1.658 1.8695-.4.7621-.6 1.6589-.6 2.6905s.2 1.9621.6 2.7832c.399.821.952 1.4737 1.658 1.9621.736.4547 1.583.6821 2.535.6821zm21.032 6.2947c-1.535 0-2.824-.2905-3.87-.8673-1.046-.5769-1.829-1.339-2.352-2.2822-.489-.9431-.736-1.9621-.736-3.0568s.277-2.0968.829-2.9179c.553-.8505 1.336-1.5958 2.348-2.2358l7.324-4.6063c.183-.1221.306-.2442.37-.3663.06-.1221.094-.2274.094-.32 0-.1516-.06-.2737-.183-.3663-.123-.0927-.306-.139-.553-.139h-9.353v-6.341h12.577c1.352 0 2.535.2905 3.547.8673 1.012.5769 1.799 1.3516 2.348 2.3243.553.9431.829 1.9747.829 3.1031 0 1.0021-.247 1.9621-.736 2.8716-.489.9137-1.199 1.6589-2.118 2.2358l-7.324 4.6063c-.153.0926-.276.1979-.37.32-.059.0926-.093.181-.093.2737 0 .1221.063.2442.183.3663.153.0926.353.1347.599.1347h9.4v6.3874h-12.764zm24.413.5937c-2.058 0-3.887-.5179-5.482-1.5495-1.599-1.0315-2.858-2.4463-3.777-4.24-.889-1.8231-1.335-3.8905-1.335-6.2021 0-2.4337.536-4.6063 1.612-6.5221 1.106-1.9158 2.641-3.4063 4.606-4.4716 1.965-1.0947 4.283-1.6421 6.958-1.6421s4.853.5306 6.729 1.5958c1.905 1.0653 3.377 2.5221 4.423 4.379 1.042 1.8568 1.565 3.9831 1.565 6.3873v11.6758h-7.694v-3.6505h-.183c-.429.8211-.982 1.5495-1.659 2.1895-.676.64-1.488 1.141-2.441 1.5031-.923.3664-2.029.5474-3.317.5474zm2.395-6.8884c.982 0 1.829-.2274 2.535-.6821.706-.4842 1.259-1.1411 1.659-1.9621.399-.8211.599-1.7474.599-2.7832s-.2-1.9326-.599-2.6905c-.4-.7916-.953-1.4147-1.659-1.8695-.706-.4884-1.553-.7284-2.535-.7284-.983 0-1.795.2442-2.535.7284-.706.4548-1.259 1.0779-1.659 1.8695-.399.7621-.599 1.6589-.599 2.6905s.2 1.9621.599 2.7832c.4.821.953 1.4737 1.659 1.9621.736.4547 1.582.6821 2.535.6821zm14.997 6.2947v-13.4989c0-2.0084.489-3.8021 1.476-5.3811 1.012-1.6126 2.428-2.8716 4.24-3.7852 1.842-.9137 3.994-1.3685 6.452-1.3685s4.576.4548 6.358 1.3685c1.783.9136 3.148 2.1726 4.101 3.7852.952 1.5832 1.429 3.3769 1.429 5.3811v13.4989h-8.018v-13.1368c0-.699-.17-1.339-.506-1.9158-.34-.6063-.812-1.0947-1.429-1.4611-.583-.3663-1.276-.5473-2.075-.5473-.8 0-1.476.181-2.118.5473-.613.3664-1.089.8506-1.43 1.4611-.34.5768-.506 1.2168-.506 1.9158v13.1368h-7.97zm29.721 9.259v-6.7495h11.564c.523 0 .936-.1516 1.242-.4547.306-.2737.459-.64.459-1.0948v-4.6526h-.182c-.494.6063-1.059 1.1537-1.706 1.6421-.646.4547-1.395.8211-2.258 1.0947-.83.2442-1.812.3663-2.948.3663-2.088 0-3.93-.4842-5.529-1.461-1.599-1.0021-2.858-2.3579-3.777-4.059-.889-1.701-1.335-3.6168-1.335-5.7473s.493-4.2105 1.476-6.0674c.982-1.8568 2.428-3.3305 4.329-4.4253 1.906-1.1242 4.224-1.6884 6.958-1.6884 2.735 0 4.883.5306 6.818 1.5958 1.936 1.0653 3.441 2.5558 4.517 4.4716 1.106 1.8863 1.659 4.1053 1.659 6.661v13.499c0 2.1895-.647 3.9074-1.935 5.1537-1.289 1.2758-3.101 1.9158-5.436 1.9158h-13.912zm8.43-16.2821c.923 0 1.735-.2106 2.441-.64.706-.4548 1.259-1.0485 1.659-1.7811.399-.7284.599-1.5368.599-2.4168 0-.9727-.2-1.84-.599-2.5979-.4-.7621-.953-1.3684-1.659-1.8232-.706-.4547-1.523-.6821-2.441-.6821-.919 0-1.753.2274-2.489.6821-.706.4253-1.258 1.019-1.658 1.7769-.4.7621-.6 1.6126-.6 2.5557 0 .9432.2 1.7474.6 2.5095.4.7284.952 1.3221 1.658 1.7811.736.4252 1.566.64 2.489.64z"/><path d="m127.935 58.2065.311.3369c.174.1895.421.2989.68.2989h9.221c.796 0 1.212-.9389.672-1.52l-.038-.0421-12.726-13.8737c-.314-.3452-.314-.8715 0-1.2168l12.726-13.8737.038-.0421c.54-.581.124-1.52-.672-1.52h-9.225c-.247 0-.481.0968-.651.2737-.008.0084-.017.0168-.025.0253l-6.308 6.8757-4.852 5.2885v-11.5537c0-.5011-.409-.9053-.915-.9053h-8.055c-.507 0-.915.4042-.915.9053v30.2695c0 .501.408.9052.915.9052h8.055c.506 0 .915-.4042.915-.9052v-11.5537l4.852 5.2884z"/><path clip-rule="evenodd" d="m90.6226 42.9692c0 19.0443-15.4816 34.5474-34.6634 34.5474s-34.6633-15.5031-34.6633-34.5474c0-19.0442 15.4815-34.54732 34.6633-34.54732s34.6634 15.50312 34.6634 34.54732zm-34.6634 29.6127c16.3917 0 29.6786-13.259 29.6786-29.6127 0-16.3536-13.2869-29.6126-29.6786-29.6126s-29.6786 13.259-29.6786 29.6126c0 16.3537 13.2869 29.6127 29.6786 29.6127z" fill-rule="evenodd"/><g mask="url(#a)"><path d="m63.3853 43.1798c-.1361.1474-.1361.3748 0 .5221l9.1911 10.0169c.2424.261.6847.0926.6847-.2611v-20.0337c0-.3579-.4423-.5263-.6847-.261z"/><path d="m61.2204 59.9836.3318.3621c.1871.2021.4508.32.7315.32h9.9056c.8549 0 1.3058-1.0063.7231-1.6295l-.0426-.0463-13.6696-14.8969c-.3403-.3705-.3403-.9389 0-1.3094l13.6696-14.8969.0426-.0463c.5784-.6231.1318-1.6295-.7231-1.6295h-9.9056c-.2637 0-.5189.1053-.7018.2906-.0085.0084-.0212.0168-.0255.0252l-6.7753 7.3853-5.2101 5.68v-12.4084c0-.539-.4423-.9727-.9825-.9727h-8.6509c-.5444 0-.9825.4379-.9825.9727v32.5094c0 .539.4423.9727.9825.9727h8.6509c.5444 0 .9825-.4379.9825-.9727v-12.4084l5.2101 5.68 6.4436 7.0232z"/></g></g><path d="m267.882 60.1014v-32.4295h11.318c7.97 0 12.508 3.4905 12.508 10.341v.1811c0 6.8505-4.81 10.1137-12.279 10.1137h-4.168v11.7937h-7.375zm7.375-16.9179h3.755c3.62 0 5.542-1.7221 5.542-4.9432v-.1811c0-3.4484-2.016-4.8084-5.542-4.8084h-3.755zm24.889 17.4147c-4.351 0-8.017-2.0884-8.017-7.0737 0-5.5326 5.129-7.621 12.462-7.621h2.705v-.9516c0-2.8127-.872-4.3537-3.896-4.3537-2.611 0-3.802 1.3137-4.079 3.3558h-6.277c.412-5.6253 4.903-8.1179 10.764-8.1179s10.034 2.3579 10.034 8.8v15.4653h-6.461v-2.859c-1.374 1.9032-3.483 3.3558-7.239 3.3558zm1.97-4.5811c2.93 0 5.176-1.5873 5.176-4.2189v-1.9958h-2.565c-3.849 0-6.095.8168-6.095 3.3558 0 1.7221 1.055 2.8589 3.484 2.8589zm18.178 12.1558 4.215-10.4758-9.528-21.3179h7.146l5.818 14.24 5.359-14.24h6.367l-12.964 31.7937z" fill="#fcffd6"/></svg>