<svg fill="none" height="36" viewBox="0 0 104 36" width="104" xmlns="http://www.w3.org/2000/svg"><path d="m7 12.7676h30" stroke="#040000" stroke-linecap="round" stroke-linejoin="round" stroke-miterlimit="10" stroke-width="3"/><path d="m13 24.7676h3" stroke="#040000" stroke-linecap="round" stroke-linejoin="round" stroke-miterlimit="10" stroke-width="3"/><path d="m19.75 24.7676h6" stroke="#040000" stroke-linecap="round" stroke-linejoin="round" stroke-miterlimit="10" stroke-width="3"/><path d="m13.66 5.26758h16.665c5.34 0 6.675 1.32 6.675 6.58502v12.315c0 5.265-1.335 6.585-6.66 6.585h-16.68c-5.325.015-6.66-1.305-6.66-6.57v-12.33c0-5.26502 1.335-6.58502 6.66-6.58502z" stroke="#040000" stroke-linecap="round" stroke-linejoin="round" stroke-width="3"/><path d="m56.6673 18.6761h-4v4h-1.3333v-4h-4v-1.3333h4v-4h1.3333v4h4z" fill="#262626"/><g stroke="#040000" stroke-linecap="round" stroke-linejoin="round"><path d="m70.705 17.1393-2.61-2.61-2.595 2.61" stroke-width="2.5"/><path d="m93.2949 18.8799 2.61 2.61 2.61-2.61" stroke-width="2.5"/><path d="m95.8893 21.4901v-3.48c0-7.68-6.225-13.88998-13.89-13.88998-4.38 0-8.295 2.04004-10.845 5.20504" stroke-width="2.5"/><path d="m68.1094 14.5293v3.48c0 7.68 6.225 13.89 13.89 13.89 4.38 0 8.295-2.04 10.845-5.205" stroke-width="2.5"/><path d="m78.752 21.5052c0 1.455 1.1227 2.625 2.5 2.625h2.8143c1.1976 0 2.1707-1.02 2.1707-2.295 0-1.365-.5988-1.86-1.482-2.175l-4.506-1.575c-.8833-.315-1.4821-.795-1.4821-2.175 0-1.26.9731-2.295 2.1707-2.295h2.8143c1.3773 0 2.5001 1.17 2.5001 2.625" stroke-width="2.5"/><path d="m82.4941 12.1299v13.5" stroke-width="2.5"/></g></svg>