<svg fill="none" height="124" viewBox="0 0 505 124" width="505" xmlns="http://www.w3.org/2000/svg" xmlns:xlink="http://www.w3.org/1999/xlink"><mask id="a" height="50" maskUnits="userSpaceOnUse" width="49" x="54" y="36"><path d="m102.204 36.9277h-47.87v48.5499h47.87z" fill="#fff"/></mask><path d="m205.835 84.1359c-2.872 0-5.424-.7298-7.649-2.1834-2.224-1.4536-3.987-3.4471-5.268-5.9745-1.246-2.569-1.863-5.4821-1.863-8.7394 0-3.4292.747-6.4907 2.248-9.1902 1.543-2.6995 3.685-4.7998 6.426-6.3009 2.741-1.5425 5.981-2.3138 9.707-2.3138s6.77.7475 9.386 2.2486c2.659 1.501 4.712 3.5539 6.171 6.1703 1.46 2.6165 2.184 5.6126 2.184 9.0004v16.4523h-10.734v-5.144h-.255c-.599 1.157-1.37 2.1834-2.314 3.0852-.943.9018-2.077 1.6078-3.406 2.1181-1.287.5161-2.83.7713-4.628.7713zm3.34-9.7064c1.371 0 2.551-.3204 3.536-.9612.985-.6823 1.756-1.6078 2.314-2.7648.558-1.1569.837-2.4622.837-3.9217s-.279-2.7233-.837-3.7912c-.558-1.1154-1.329-1.9935-2.314-2.6342-.985-.6883-2.165-1.0265-3.536-1.0265s-2.51.3442-3.536 1.0265c-.985.6407-1.757 1.5188-2.314 2.6342-.558 1.0739-.837 2.3376-.837 3.7912s.279 2.7648.837 3.9217c.557 1.157 1.329 2.0766 2.314 2.7648 1.026.6408 2.207.9612 3.536.9612zm29.34 8.8698c-2.142 0-3.94-.4094-5.399-1.2222-1.46-.8128-2.552-1.8867-3.281-3.2157-.683-1.329-1.027-2.7648-1.027-4.3073 0-1.5426.386-2.9547 1.157-4.1116.772-1.1985 1.863-2.2486 3.275-3.1505l10.217-6.4907c.256-.172.428-.3441.517-.5161.083-.1721.13-.3204.13-.451 0-.2135-.083-.3856-.255-.5161-.172-.1306-.427-.1958-.771-.1958h-13.048v-8.9351h17.545c1.887 0 3.536.4093 4.949 1.2222 1.412.8128 2.509 1.9045 3.275 3.275.771 1.329 1.157 2.7826 1.157 4.3726 0 1.4121-.344 2.7648-1.027 4.0463-.682 1.2875-1.673 2.3376-2.955 3.1505l-10.217 6.4907c-.213.1305-.385.2788-.516.4509-.083.1305-.13.2551-.13.3856 0 .1721.089.3442.255.5162.213.1305.492.1899.836.1899h13.113v9.0004h-17.806zm34.057.8366c-2.872 0-5.423-.7298-7.648-2.1834-2.231-1.4536-3.987-3.4471-5.269-5.9745-1.24-2.569-1.863-5.4821-1.863-8.7394 0-3.4292.748-6.4907 2.249-9.1902 1.543-2.6995 3.685-4.7998 6.426-6.3009 2.741-1.5425 5.975-2.3138 9.707-2.3138s6.77.7475 9.386 2.2486c2.658 1.501 4.711 3.5539 6.171 6.1703 1.453 2.6165 2.183 5.6126 2.183 9.0004v16.4523h-10.733v-5.144h-.255c-.6 1.157-1.371 2.1834-2.314 3.0852-.944.9018-2.077 1.6078-3.406 2.1181-1.287.5161-2.83.7713-4.628.7713zm3.341-9.7064c1.37 0 2.551-.3204 3.536-.9612.985-.6823 1.756-1.6078 2.314-2.7648.558-1.1569.836-2.4622.836-3.9217s-.278-2.7233-.836-3.7912c-.558-1.1154-1.329-1.9935-2.314-2.6342-.985-.6883-2.166-1.0265-3.536-1.0265-1.371 0-2.504.3442-3.537 1.0265-.985.6407-1.756 1.5188-2.314 2.6342-.557 1.0739-.836 2.3376-.836 3.7912s.279 2.7648.836 3.9217c.558 1.157 1.329 2.0766 2.314 2.7648 1.027.6408 2.208.9612 3.537.9612zm20.92 8.8698v-19.0212c0-2.8301.683-5.3575 2.059-7.5824 1.412-2.2724 3.388-4.0463 5.916-5.3338 2.569-1.2875 5.571-1.9282 9.001-1.9282 3.429 0 6.384.6407 8.87 1.9282s4.39 3.0614 5.719 5.3338c1.329 2.2308 1.994 4.7583 1.994 7.5824v19.0212h-11.184v-18.511c0-.9849-.238-1.8867-.706-2.6995-.475-.8544-1.134-1.5426-1.994-2.0588-.813-.5161-1.78-.7713-2.895-.7713-1.116 0-2.059.2552-2.955.7713-.854.5162-1.519 1.1985-1.994 2.0588-.474.8128-.706 1.7146-.706 2.6995v18.511h-11.119zm41.462 13.0467v-9.5106h16.133c.73 0 1.305-.2136 1.732-.6408.428-.3856.641-.9018.641-1.5426v-6.5559h-.255c-.688.8543-1.477 1.6256-2.379 2.3138-.902.6408-1.946 1.157-3.151 1.5426-1.157.3441-2.527.5162-4.112.5162-2.913 0-5.482-.6823-7.713-2.0588-2.231-1.412-3.987-3.3224-5.269-5.7194-1.24-2.3969-1.863-5.0964-1.863-8.0986 0-3.0021.689-5.933 2.059-8.5494 1.371-2.6165 3.388-4.693 6.04-6.2356 2.658-1.5841 5.892-2.3792 9.707-2.3792s6.811.7476 9.511 2.2486c2.7 1.5011 4.8 3.6014 6.301 6.3009 1.543 2.658 2.314 5.7847 2.314 9.386v19.0213c0 3.0852-.902 5.5058-2.699 7.262-1.798 1.7977-4.326 2.6995-7.583 2.6995h-19.408zm11.76-22.943c1.287 0 2.421-.2966 3.406-.9018.985-.6407 1.756-1.4773 2.314-2.5096.557-1.0264.836-2.1656.836-3.4056 0-1.3705-.279-2.5927-.836-3.6607-.558-1.0738-1.329-1.9282-2.314-2.5689-.985-.6408-2.124-.9612-3.406-.9612s-2.445.3204-3.471.9612c-.985.5992-1.756 1.4357-2.314 2.5037-.558 1.0739-.837 2.2723-.837 3.6013s.279 2.4622.837 3.5361c.558 1.0264 1.329 1.863 2.314 2.5097 1.026.5992 2.183.9018 3.471.9018z" fill="#040000"/><path d="m178.476 82.0188.433.4747c.243.267.587.4212.949.4212h12.863c1.11 0 1.691-1.323.938-2.1418l-.054-.0593-17.752-19.5493c-.439-.4865-.439-1.2281 0-1.7147l17.752-19.5492.054-.0594c.753-.8187.172-2.1418-.938-2.1418h-12.869c-.344 0-.67.1365-.908.3857-.012.0118-.023.0237-.035.0356l-8.799 9.6886-6.77 7.4518v-16.2802c0-.706-.57-1.2755-1.276-1.2755h-11.238c-.706 0-1.275.5695-1.275 1.2755v42.6525c0 .706.569 1.2756 1.275 1.2756h11.238c.706 0 1.276-.5696 1.276-1.2756v-16.2802l6.77 7.4519z" fill="#040000"/><path d="m119.469 60.5472c0 23.0438-18.536 41.7268-41.4024 41.7268-22.8669 0-41.4025-18.683-41.4025-41.7268s18.5356-41.7269 41.4025-41.7269c22.8664 0 41.4024 18.6831 41.4024 41.7269z" fill="#bec430"/><g fill="#040000"><path clip-rule="evenodd" d="m126.422 60.5456c0 26.835-21.598 48.6804-48.3567 48.6804-26.7591 0-48.3563-21.8454-48.3563-48.6804s21.5972-48.6804 48.3563-48.6804c26.7587 0 48.3567 21.8454 48.3567 48.6804zm-48.3567 41.7274c22.8667 0 41.4027-18.6835 41.4027-41.7274 0-23.0438-18.536-41.7269-41.4027-41.7269-22.8669 0-41.4025 18.6831-41.4025 41.7269 0 23.0439 18.5356 41.7274 41.4025 41.7274z" fill-rule="evenodd"/><g mask="url(#a)"><path d="m88.4256 60.8444c-.1899.2076-.1899.528 0 .7357l12.8214 14.1146c.339.3679.956.1305.956-.3678v-28.2293c0-.5043-.617-.7416-.956-.3679z"/><path d="m85.4065 84.5223.4628.5102c.261.2848.6289.4509 1.0205.4509h13.8182c1.193 0 1.822-1.4179 1.009-2.296l-.059-.0653-19.0698-20.991c-.4747-.5221-.4747-1.3231 0-1.8452l19.0698-20.991.059-.0652c.807-.8781.184-2.2961-1.009-2.2961h-13.8182c-.3679 0-.7239.1483-.979.4094-.0119.0118-.0297.0237-.0356.0356l-9.4517 10.4065-7.2683 8.0036v-17.4846c0-.7594-.6171-1.3705-1.3706-1.3705h-12.0683c-.7595 0-1.3706.617-1.3706 1.3705v45.8088c0 .7594.6171 1.3705 1.3706 1.3705h12.0683c.7595 0 1.3706-.617 1.3706-1.3705v-17.4846l7.2683 8.0037 8.9889 9.8962z"/></g><path d="m373.705 84.6883v-45.6961h15.789c11.119 0 17.449 4.9185 17.449 14.5715v.2551c0 9.653-6.71 14.2511-17.129 14.2511h-5.815v16.6184h-10.288zm10.288-23.8389h5.239c5.05 0 7.732-2.4266 7.732-6.9653v-.2552c0-4.8591-2.813-6.7755-7.732-6.7755h-5.239zm34.722 24.539c-6.07 0-11.184-2.9428-11.184-9.9675 0-7.796 7.155-10.7388 17.384-10.7388h3.774v-1.3408c0-3.9633-1.216-6.1348-5.435-6.1348-3.643 0-5.304 1.8511-5.69 4.7287h-8.758c.576-7.9266 6.841-11.4389 15.018-11.4389 8.176 0 13.996 3.3225 13.996 12.4v21.792h-9.012v-4.0286c-1.917 2.6818-4.86 4.7287-10.099 4.7287zm2.747-6.4552c4.088 0 7.221-2.2367 7.221-5.9448v-2.8123h-3.578c-5.369 0-8.502 1.151-8.502 4.7286 0 2.4266 1.471 4.0285 4.859 4.0285zm25.359 17.1287 5.88-14.7614-13.291-30.0388h9.968l8.117 20.0654 7.476-20.0654h8.882l-18.085 44.8002z"/></g></svg>