<svg fill="none" height="512" viewBox="0 0 314 512" width="314" xmlns="http://www.w3.org/2000/svg" xmlns:xlink="http://www.w3.org/1999/xlink"><clipPath id="a"><path d="m0 .554688h314v511h-314z"/></clipPath><clipPath id="b"><path d="m257 450.805c0 11.045-8.954 20-20 20h-160c-11.0457 0-20-8.955-20-20v-157h200z"/></clipPath><mask id="c" fill="#fff"><path d="m257 450.805c0 11.045-8.954 20-20 20h-160c-11.0457 0-20-8.955-20-20v-157h200z" fill="#fff"/></mask><g clip-path="url(#a)"><path d="m313 1.30469v263.00031c0 27.062-21.938 49-49 49h-214c-27.062 0-49-21.938-49-49v-263.00031z" fill="#e8e8e7"/><path d="m313 1.30469v263.00031c0 27.062-21.938 49-49 49h-214c-27.062 0-49-21.938-49-49v-263.00031z" stroke="#6a6a68" stroke-width="2"/><path d="m297 1.30469v246.00031c0 16.016-12.984 29-29 29h-222c-16.0163 0-29-12.984-29-29v-246.00031z" fill="#fff"/><path d="m297 1.30469v246.00031c0 16.016-12.984 29-29 29h-222c-16.0163 0-29-12.984-29-29v-246.00031z" stroke="#6a6a68" stroke-width="2"/><rect fill="#040000" height="2" rx="1" width="202" x="56" y="292.805"/><rect height="2" rx="1" stroke="#000" stroke-width="2" width="202" x="56" y="292.805"/><g clip-path="url(#b)"><path d="m257 450.805c0 11.045-8.954 20-20 20h-160c-11.0457 0-20-8.955-20-20v-157h200z" fill="#fbfbfa"/><rect fill="#a8a8a7" height="70" rx="5" transform="matrix(-1 -0 0 -1 466 879.61)" width="22" x="233" y="439.805"/><g fill="#4a4a49"><path d="m171.289 431.804h-2.594l.173-3.682-2.955 2.147-1.384-2.304 3.317-1.817-3.317-1.817 1.384-2.257 2.955 2.1-.173-3.635h2.594l-.204 3.635 3.002-2.1 1.384 2.257-3.317 1.817 3.317 1.817-1.384 2.304-3.002-2.131z"/><path d="m171.305 410.538h-2.594l.157-3.682-2.955 2.147-1.384-2.303 3.317-1.818-3.317-1.817 1.384-2.256 2.955 2.099-.173-3.635h2.594l-.204 3.635 3.002-2.099 1.384 2.256-3.317 1.817 3.317 1.818-1.368 2.303-3.003-2.131z"/><path d="m171.305 389.275h-2.594l.157-3.667-2.955 2.147-1.384-2.303 3.317-1.818-3.317-1.817 1.384-2.256 2.955 2.099-.173-3.635h2.594l-.204 3.635 3.002-2.099 1.384 2.256-3.317 1.817 3.317 1.818-1.384 2.303-3.002-2.131z"/><path d="m171.305 368.025h-2.594l.157-3.667-2.955 2.147-1.384-2.303 3.317-1.818-3.317-1.817 1.384-2.256 2.955 2.099-.173-3.635h2.594l-.204 3.635 3.002-2.099 1.384 2.256-3.317 1.817 3.317 1.818-1.384 2.303-3.002-2.131z"/><path d="m171.305 332.776h-2.594l.157-3.667-2.955 2.147-1.384-2.303 3.317-1.818-3.317-1.817 1.384-2.256 2.955 2.099-.173-3.635h2.594l-.204 3.635 3.002-2.099 1.384 2.256-3.317 1.817 3.317 1.818-1.384 2.303-3.002-2.131z"/><path d="m171.305 311.527h-2.594l.157-3.667-2.955 2.147-1.384-2.303 3.317-1.818-3.317-1.817 1.384-2.256 2.955 2.099-.173-3.635h2.594l-.204 3.635 3.002-2.099 1.384 2.256-3.317 1.817 3.317 1.818-1.384 2.303-3.002-2.131z"/></g><rect fill="#e8e8e7" height="16" rx="5" transform="matrix(0 1 -1 0 514.805 258.805)" width="54" x="128" y="386.805"/><rect fill="#e8e8e7" height="37" rx="5" transform="matrix(-1 -0 0 -1 206 881.61)" width="22" x="103" y="440.805"/></g><path d="m259 450.805c0 12.15-9.85 22-22 22h-160c-12.1503 0-22-9.85-22-22h4c0 9.941 8.0589 18 18 18h160c9.941 0 18-8.059 18-18zm-202-157h200zm202 0v157c0 12.15-9.85 22-22 22v-4c9.941 0 18-8.059 18-18v-157zm-182 179c-12.1503 0-22-9.85-22-22v-157h4v157c0 9.941 8.0589 18 18 18z" fill="#a8a8a7" mask="url(#c)"/><path d="m175.529 492.305-1.938-1.939-7.687 7.672v-16.733h-2.75v16.733l-7.672-7.686-1.953 1.953 11 11z" fill="#262626"/></g></svg>