<svg fill="none" height="413" viewBox="0 0 589 413" width="589" xmlns="http://www.w3.org/2000/svg" xmlns:xlink="http://www.w3.org/1999/xlink"><clipPath id="a"><path d="m314.795 412.807h-314.000078v-277c0-22.092 17.908578-40.0004 39.999978-40.0004h234.0001c22.091 0 40 17.9084 40 40.0004z"/></clipPath><clipPath id="b"><path d="m112.295 3.80664h91v92h-91z"/></clipPath><mask id="c" fill="#fff"><path d="m530.252 179.914c11.046 0 20 8.954 20 20v160c0 11.046-8.954 20-20 20h-220v-200z" fill="#fff"/></mask><path d="m313.795 411.807h-312.00008v-371.0004c0-21.5391 17.46088-38.99996 38.99998-38.99996h234.0001c21.539 0 39 17.46086 39 38.99996z" fill="#e8e8e7"/><path d="m313.795 411.807h-312.00008v-371.0004c0-21.5391 17.46088-38.99996 38.99998-38.99996h234.0001c21.539 0 39 17.46086 39 38.99996z" stroke="#6a6a68" stroke-width="2"/><path d="m297.795 411.807h-280.0001v-227c0-21.539 17.4609-39 39-39h202.0001c21.539 0 39 17.461 39 39z" fill="#fff"/><path d="m297.795 411.807h-280.0001v-227c0-21.539 17.4609-39 39-39h202.0001c21.539 0 39 17.461 39 39z" stroke="#6a6a68" stroke-width="2"/><g clip-path="url(#a)"><path d="m309.252 175.744c0-2.209 1.791-4 4-4s4 1.791 4 4v208.34c0 2.209-1.791 4-4 4s-4-1.791-4-4z" fill="#040000"/></g><path d="m313.795 411.807h-312.00008v-276c0-21.539 17.46088-39.0004 38.99998-39.0004h234.0001c21.539 0 39 17.4614 39 39.0004z" stroke="#6a6a68" stroke-width="2"/><g clip-path="url(#b)"><path d="m145.954 77.0216c-10.841-.9583-20.417-5.0237-26.645-11.3203-3.555-3.5862-5.71-7.4795-6.68-12.069-.444-2.0888-.444-5.5478.008-7.6592 1.355-6.3789 5.428-11.9567 11.849-16.2168 14.64-9.7031 37.072-9.6582 51.58.1123 1.925 1.2953 3.169 2.3285 4.917 4.0655 2.199 2.1937 5.376 7.5843 5.376 7.5843s.363.2695.667.3294c1.029.2171 2.399 1.0257 3.503 2.0664.859.8086 1.518 1.6921 3.154 4.1927 1.652 2.5231 9.117 14.1729 9.569 14.9366.177.2994-.171.7711-.563.7711-.282 0-.474-.1872-.889-.846-.289-.4642-2.192-3.4515-4.229-6.641-7.205-11.2754-7.59-11.7994-9.597-12.8177l-1.052-.5316h-3.095c-3.096 0-3.096.0001-3.17.3295-.407 1.8043-.489 2.2461-.4 2.3284.059.0524 1.815 1.0632 3.903 2.2461l3.799 2.1488-.237.5016c-.133.277-.281.5016-.333.5016s-3.251-1.7893-7.11-3.983c-3.858-2.1862-7.242-4.043-7.516-4.1179-1.096-.3069-2.785.9209-2.785 2.029 0 1.123.326 1.445 7.11 7.0602 4.228 3.5039 6.65 5.6078 7.02 6.1019.674.9059 1.355 2.2386 1.977 3.8783 1.104 2.8899 2.896 4.4996 5.836 5.2483l.97.2471-.081.5316c-.045.292-.104.5615-.141.5989-.126.1423-2.074-.4866-3.199-1.0332-1.763-.8535-2.977-2.0739-4.17-4.2002-.007-.0149-.703.2247-1.533.5316-1.481.5466-1.555.5915-2.954 1.9766-5.977 5.8997-14.552 9.6657-24.898 10.9459-1.696.2396-8.168.337-9.961.1722zm10.302-1.8118c4.747-.6364 8.435-1.5872 12.285-3.182 4.044-1.6771 7.865-4.0804 10.531-6.6409l1.052-1.0108-2.651-1.2802c-2.829-1.3702-3.111-1.5948-3.474-2.8151-.229-.7712.03-1.5948.756-2.3809l.563-.6214-1.23-.9434c-.97-.7487-1.274-1.0706-1.466-1.5648-.304-.8011-.193-1.6696.296-2.3658l.37-.5316-3.88-.6888c-2.133-.3819-4.125-.7637-4.421-.8535-.585-.1722-1.17-.8461-1.326-1.4974-.081-.3519 1.822-9.7406 2.244-11.0808.193-.5989 1-1.3252 1.614-1.4375.645-.1198 12.079 1.9092 12.649 2.2461.904.5316 1.185 1.3851.904 2.7028l-.119.5466h.63c.348 0 1.17-.0449 1.829-.0973l1.2-.0974-.593-1.1155c-1.785-3.3617-5.036-6.7608-9.042-9.4561-1.874-1.2578-5.865-3.2493-8.272-4.1178-3.422-1.2354-7.561-2.1638-11.538-2.583-2.185-.2321-7.894-.2247-10.012.0074-5.073.5541-9.68 1.7146-13.708 3.4515-9.331 4.0206-15.604 10.684-17.211 18.2758-.422 1.984-.452 5.458-.066 7.2623.851 3.9906 2.703 7.4421 5.717 10.654 6.146 6.5436 15.537 10.5716 26.793 11.4775 1.511.1198 8.043-.0599 9.576-.262zm-2.052-7.1426c-.577-.1722-1.17-.8685-1.296-1.5348-.081-.4343.015-.7337.63-1.9391 2.488-4.8666 3.569-9.3438 3.569-14.7719 0-5.2483-.955-9.3362-3.332-14.2327-.511-1.0482-.926-2.029-.926-2.1712 0-.5241.43-1.2803.896-1.5723.637-.4043 1.711-.3294 2.229.1572.2.1872.711 1.0407 1.141 1.8942 1.703 3.3767 2.866 7.0827 3.443 10.9385.356 2.3884.43 6.9105.141 9.0967-.526 4.028-1.577 7.6292-3.266 11.1481-1.022 2.1263-1.659 3.0023-2.192 3.0023-.104 0-.281.0299-.385.0599-.104.0299-.4 0-.652-.0749zm-6.924-3.6611c-.889-.2621-1.533-1.3701-1.274-2.1937.059-.2021.482-1.123.933-2.0514 1.904-3.9307 2.696-8.1384 2.311-12.2712-.319-3.3991-.918-5.5404-2.437-8.6699-1.014-2.1039-1.066-2.4258-.474-3.2793.563-.8086 1.97-.9359 2.704-.2546.511.4717 2.103 3.8334 2.717 5.7351 2.03 6.289 1.718 13.0498-.881 19.2265-1.34 3.167-2.281 4.1478-3.599 3.7585zm-7.139-3.7136c-.548-.247-1.022-.8385-1.155-1.43-.082-.3593.059-.7636.711-2.0963 2.399-4.9115 2.421-9.6358.081-14.4349-1.029-2.1039-1.051-2.5231-.185-3.3542.43-.4118.615-.4792 1.215-.4792 1.014 0 1.54.5166 2.443 2.3959 1.393 2.89 1.963 5.3981 1.955 8.61-.007 3.3018-.54 5.5703-2.021 8.6175-.852 1.7445-1.274 2.2087-2.126 2.321-.259.0224-.674-.0375-.918-.1498zm-6.665-3.4589c-.437-.1797-.933-.7787-1.081-1.3028-.163-.584-.03-1.0482.622-2.1338.844-1.4 1.037-2.1487 1.037-3.9756 0-1.8268-.193-2.583-1.037-3.9755-.289-.4717-.57-1.0407-.637-1.2653-.274-.9209.489-2.0515 1.511-2.2461.866-.1647 1.459.2246 2.258 1.4824 2.304 3.6387 2.304 8.4902 0 12.0989-.814 1.2653-1.718 1.7146-2.673 1.3178zm49.64 5.6451c.77-.277 1.436-.539 1.481-.5839.044-.045-.104-.5391-.333-1.1081-.46-1.1605-.386-1.1306-2.03-.8161-1.77.3444-2.799.0374-4.739-1.4075-.526-.3969-1.074-.7188-1.207-.7188-.141 0-.437.2021-.674.4567-.496.5391-.57 1.3776-.171 1.8792.356.4343 5.221 2.7777 5.799 2.7927.259.0075 1.096-.2171 1.874-.4942zm-.77-3.7659c.718-.1497.799-.1947.673-.4343-.14-.262-6.872-5.9072-7.457-6.2591-.481-.2845-.874-.2171-1.274.2172-1.17 1.2653-1.029 1.5348 2 3.8782 3.658 2.8376 4.051 3.0023 6.058 2.598zm-9.035-8.5576c0-.0375-.763-.7038-1.696-1.475-2.303-1.9166-2.8-2.6354-2.8-4.0579 0-1.1829.785-2.3285 2.044-2.9873.622-.3294 1.741-.4268 2.37-.2171.445.1497 2.459 1.2503 5.243 2.8675l.585.3444.482-2.321c.496-2.3734.503-3.0023.044-3.1445-.14-.0449-2.829-.5391-5.969-1.1006-5.584-.9958-6.198-1.0557-6.457-.6289-.141.2246-2.266 10.1823-2.266 10.6016 0 .2096.103.4716.236.5839.126.1123 1.941.5092 4.029.8835 4.029.7337 4.155.7562 4.155.6514z" fill="#040000"/></g><path d="m530.252 179.914c11.046 0 20 8.954 20 20v160c0 11.046-8.954 20-20 20h-220v-200z" fill="#fbfbfa"/><path d="m530.252 177.914c12.15 0 22 9.85 22 22v160c0 12.15-9.85 22-22 22v-4c9.941 0 18-8.059 18-18v-160c0-9.941-8.059-18-18-18zm-220 202v-200zm0-202h220c12.15 0 22 9.85 22 22h-4c0-9.941-8.059-18-18-18h-220zm242 182c0 12.15-9.85 22-22 22h-220v-4h220c9.941 0 18-8.059 18-18z" fill="#a8a8a7" mask="url(#c)"/><rect fill="#a8a8a7" height="70" rx="5" transform="matrix(0 1 -1 0 723.166 -315.338)" width="22" x="519.252" y="203.914"/><g fill="#4a4a49"><path d="m511.251 265.625v2.594l-3.682-.173 2.147 2.955-2.303 1.384-1.818-3.317-1.817 3.317-2.256-1.384 2.099-2.955-3.635.173v-2.594l3.635.204-2.099-3.002 2.256-1.384 1.817 3.317 1.818-3.317 2.303 1.384-2.131 3.002z"/><path d="m489.986 265.609v2.594l-3.682-.157 2.146 2.955-2.303 1.384-1.817-3.317-1.818 3.317-2.256-1.384 2.1-2.955-3.635.173v-2.594l3.635.204-2.1-3.002 2.256-1.384 1.818 3.317 1.817-3.317 2.303 1.368-2.131 3.003z"/><path d="m468.722 265.609v2.594l-3.666-.157 2.146 2.955-2.303 1.384-1.817-3.317-1.818 3.317-2.256-1.384 2.099-2.955-3.634.173v-2.594l3.634.204-2.099-3.002 2.256-1.384 1.818 3.317 1.817-3.317 2.303 1.384-2.131 3.002z"/><path d="m447.472 265.609v2.594l-3.666-.157 2.146 2.955-2.303 1.384-1.817-3.317-1.818 3.317-2.256-1.384 2.1-2.955-3.635.173v-2.594l3.635.204-2.1-3.002 2.256-1.384 1.818 3.317 1.817-3.317 2.303 1.384-2.131 3.002z"/><path d="m412.222 265.609v2.594l-3.666-.157 2.146 2.955-2.303 1.384-1.817-3.317-1.818 3.317-2.256-1.384 2.099-2.955-3.634.173v-2.594l3.634.204-2.099-3.002 2.256-1.384 1.818 3.317 1.817-3.317 2.303 1.384-2.131 3.002z"/><path d="m390.974 265.609v2.594l-3.666-.157 2.146 2.955-2.303 1.384-1.817-3.317-1.818 3.317-2.256-1.384 2.099-2.955-3.634.173v-2.594l3.634.204-2.099-3.002 2.256-1.384 1.818 3.317 1.817-3.317 2.303 1.384-2.131 3.002z"/><path d="m369.724 265.609v2.594l-3.666-.157 2.146 2.955-2.303 1.384-1.817-3.317-1.818 3.317-2.256-1.384 2.099-2.955-3.634.173v-2.594l3.634.204-2.099-3.002 2.256-1.384 1.818 3.317 1.817-3.317 2.303 1.384-2.131 3.002z"/><path d="m348.476 265.609v2.594l-3.666-.157 2.146 2.955-2.303 1.384-1.818-3.317-1.817 3.317-2.256-1.384 2.099-2.955-3.634.173v-2.594l3.634.204-2.099-3.002 2.256-1.384 1.817 3.317 1.818-3.317 2.303 1.384-2.131 3.002z"/></g><rect fill="#e8e8e7" height="16" rx="5" width="54" x="466.252" y="308.914"/><rect fill="#e8e8e7" height="37" rx="5" transform="matrix(0 1 -1 0 854.166 -186.338)" width="22" x="520.252" y="333.914"/><path d="m577.795 279.914-1.939 1.939 7.673 7.686h-16.734v2.75h16.734l-7.687 7.673 1.953 1.952 11-11z" fill="#262626"/></svg>