<svg fill="none" height="119" viewBox="0 0 392 119" width="392" xmlns="http://www.w3.org/2000/svg">
    <rect fill="#fff" height="117.449" rx="8.5" width="390" x=".572266" y=".751953"/>
    <rect height="117.449" rx="8.5" stroke="#e9e9e9" width="390" x=".572266" y=".751953"/>
    <path d="m1.07227 21.252c0-11.0457 8.95433-20.00005 20.00003-20.00005h348.9997c11.046 0 20 8.95435 20 20.00005v59h-388.99973z"
          fill="#c4c4c4"/>
    <path d="m1.07227 21.252c0-11.0457 8.95433-20.00005 20.00003-20.00005h348.9997c11.046 0 20 8.95435 20 20.00005v58h-388.99973z"
          fill="#fff"/>
    <g fill="#e9e9e9">
        <rect height="28" rx="8" width="28" x="17.0723" y="26.252"/>
        <rect height="22" rx="10" width="196" x="61.0723" y="17.252"/>
        <rect height="16" rx="8" width="143" x="61.0723" y="47.252"/>
    </g>
    <rect fill="#f2f2f0" height="28" rx="8" width="28" x="346.072" y="26.252"/>
    <path d="m357.739 33.252-1.645 1.645 5.343 5.355-5.343 5.355 1.645 1.645 7-7z" fill="#d9d9d9"/>
    <rect fill="#e9e9e9" height="8.60156" rx="4.30078" width="83.8779" x="9.07227" y="96.252"/>
    <rect fill="#e9e9e9" height="13.4492" rx="4" width="83.8779" x="153.633" y="96.252"/>
    <rect fill="#e9e9e9" height="8.60156" rx="4.30078" width="83.8779" x="298.194" y="96.252"/>
</svg>