<svg fill="none" height="22" viewBox="0 0 65 22" width="65" xmlns="http://www.w3.org/2000/svg" xmlns:xlink="http://www.w3.org/1999/xlink"><clipPath id="a"><path d="m.675781.890625h64v20.6933h-64z"/></clipPath><g clip-path="url(#a)"><path d="m42.3746.890625c-4.5383 0-8.613 2.361475-8.613 6.694905 0 4.99077 7.1978 5.33157 7.1978 7.81477 0 1.0468-1.2199 1.9963-3.2695 1.9963-2.928 0-5.1239-1.3146-5.1239-1.3146l-.9272 4.3821s2.5132 1.1199 5.8803 1.1199c4.9775 0 8.8814-2.4589 8.8814-6.8897 0-5.25855-7.2222-5.59938-7.2222-7.91216 0-.82773 1.0003-1.7285 3.0499-1.7285 2.318 0 4.2211.94946 4.2211.94946l.9272-4.23605c-.0244 0-2.0984-.876425-5.0019-.876425zm-41.576821.316485-.121998.63297s1.903169.34084 3.635529 1.04684c2.22036.80339 2.36676 1.26595 2.75715 2.70231l4.07474 15.65387h5.4655l8.369-20.03599h-5.4411l-5.3923 13.63329-2.1959-11.56396c-.1952-1.31463-1.22-2.06933-2.48878-2.06933zm26.375921 0-4.2699 20.03599h5.1971l4.2455-20.03599zm28.9378 0c-1.2443 0-1.9031.65732-2.3911 1.82588l-7.6127 18.21011h5.4411l1.0492-3.0431h6.6367l.6344 3.0431h4.8067l-4.1723-20.03599zm.7076 5.42896 1.6104 7.52263h-4.3187z" fill="#fff"/></g></svg>